<mxfile host="app.diagrams.net" modified="2023-07-12T03:40:14.990Z" agent="Mozilla/5.0 (Windows NT 10.0; Win64; x64) AppleWebKit/537.36 (KHTML, like Gecko) Chrome/113.0.0.0 Safari/537.36" etag="M1OElgL5pIgVQ9Tnp7NE" version="21.6.2" type="device">
  <diagram name="Page-1" id="2YBvvXClWsGukQMizWep">
    <mxGraphModel dx="1434" dy="1864" grid="1" gridSize="10" guides="1" tooltips="1" connect="1" arrows="1" fold="1" page="1" pageScale="1" pageWidth="850" pageHeight="1100" math="0" shadow="0">
      <root>
        <mxCell id="0" />
        <mxCell id="1" parent="0" />
        <mxCell id="fyYRCdSPNX3wc5f1jBzx-48" value="&lt;pre style=&quot;border: 0px; margin-top: 0px; margin-bottom: 0px; text-align: start;&quot;&gt;mount&lt;/pre&gt;" style="html=1;verticalAlign=bottom;startArrow=oval;startFill=1;endArrow=block;startSize=8;edgeStyle=elbowEdgeStyle;elbow=vertical;curved=0;rounded=0;" parent="1" edge="1">
          <mxGeometry width="60" relative="1" as="geometry">
            <mxPoint x="50" y="90" as="sourcePoint" />
            <mxPoint x="150" y="90" as="targetPoint" />
            <mxPoint as="offset" />
          </mxGeometry>
        </mxCell>
        <mxCell id="YQc9ioTsTIl2W0XEpxCy-2" value="VolumeBase" style="shape=umlLifeline;perimeter=lifelinePerimeter;whiteSpace=wrap;html=1;container=0;dropTarget=0;collapsible=0;recursiveResize=0;outlineConnect=0;portConstraint=eastwest;newEdgeStyle={&quot;edgeStyle&quot;:&quot;elbowEdgeStyle&quot;,&quot;elbow&quot;:&quot;vertical&quot;,&quot;curved&quot;:0,&quot;rounded&quot;:0};" parent="1" vertex="1">
          <mxGeometry x="90" width="140" height="420" as="geometry" />
        </mxCell>
        <mxCell id="YQc9ioTsTIl2W0XEpxCy-3" value="" style="html=1;points=[];perimeter=orthogonalPerimeter;outlineConnect=0;targetShapes=umlLifeline;portConstraint=eastwest;newEdgeStyle={&quot;edgeStyle&quot;:&quot;elbowEdgeStyle&quot;,&quot;elbow&quot;:&quot;vertical&quot;,&quot;curved&quot;:0,&quot;rounded&quot;:0};" parent="YQc9ioTsTIl2W0XEpxCy-2" vertex="1">
          <mxGeometry x="65" y="75" width="10" height="170" as="geometry" />
        </mxCell>
        <mxCell id="YQc9ioTsTIl2W0XEpxCy-4" value="vold" style="shape=umlFrame;whiteSpace=wrap;html=1;pointerEvents=0;width=150;height=30;" parent="1" vertex="1">
          <mxGeometry x="60" y="-40" width="200" height="500" as="geometry" />
        </mxCell>
        <mxCell id="YQc9ioTsTIl2W0XEpxCy-5" value="StorageManagerService" style="shape=umlFrame;whiteSpace=wrap;html=1;pointerEvents=0;width=145;height=30;" parent="1" vertex="1">
          <mxGeometry x="310" y="-40" width="410" height="500" as="geometry" />
        </mxCell>
        <mxCell id="gMbylMxWP29JA-Kpazjt-3" value="StorageManagerService" style="shape=umlLifeline;perimeter=lifelinePerimeter;whiteSpace=wrap;html=1;container=0;dropTarget=0;collapsible=0;recursiveResize=0;outlineConnect=0;portConstraint=eastwest;newEdgeStyle={&quot;edgeStyle&quot;:&quot;elbowEdgeStyle&quot;,&quot;elbow&quot;:&quot;vertical&quot;,&quot;curved&quot;:0,&quot;rounded&quot;:0};" vertex="1" parent="1">
          <mxGeometry x="350" width="150" height="440" as="geometry" />
        </mxCell>
        <mxCell id="gMbylMxWP29JA-Kpazjt-4" value="" style="html=1;points=[];perimeter=orthogonalPerimeter;outlineConnect=0;targetShapes=umlLifeline;portConstraint=eastwest;newEdgeStyle={&quot;edgeStyle&quot;:&quot;elbowEdgeStyle&quot;,&quot;elbow&quot;:&quot;vertical&quot;,&quot;curved&quot;:0,&quot;rounded&quot;:0};" vertex="1" parent="gMbylMxWP29JA-Kpazjt-3">
          <mxGeometry x="70" y="70" width="10" height="310" as="geometry" />
        </mxCell>
        <mxCell id="gMbylMxWP29JA-Kpazjt-12" value="" style="html=1;points=[];perimeter=orthogonalPerimeter;outlineConnect=0;targetShapes=umlLifeline;portConstraint=eastwest;newEdgeStyle={&quot;edgeStyle&quot;:&quot;elbowEdgeStyle&quot;,&quot;elbow&quot;:&quot;vertical&quot;,&quot;curved&quot;:0,&quot;rounded&quot;:0};" vertex="1" parent="gMbylMxWP29JA-Kpazjt-3">
          <mxGeometry x="75" y="190" width="10" height="40" as="geometry" />
        </mxCell>
        <mxCell id="gMbylMxWP29JA-Kpazjt-13" value="handler: H_VOLUME_STATE_CHANGED" style="html=1;align=left;spacingLeft=2;endArrow=block;rounded=0;edgeStyle=orthogonalEdgeStyle;curved=0;rounded=0;" edge="1" target="gMbylMxWP29JA-Kpazjt-12" parent="gMbylMxWP29JA-Kpazjt-3">
          <mxGeometry relative="1" as="geometry">
            <mxPoint x="80" y="170" as="sourcePoint" />
            <Array as="points">
              <mxPoint x="110" y="200" />
            </Array>
          </mxGeometry>
        </mxCell>
        <mxCell id="gMbylMxWP29JA-Kpazjt-14" value="" style="html=1;points=[];perimeter=orthogonalPerimeter;outlineConnect=0;targetShapes=umlLifeline;portConstraint=eastwest;newEdgeStyle={&quot;edgeStyle&quot;:&quot;elbowEdgeStyle&quot;,&quot;elbow&quot;:&quot;vertical&quot;,&quot;curved&quot;:0,&quot;rounded&quot;:0};" vertex="1" parent="gMbylMxWP29JA-Kpazjt-3">
          <mxGeometry x="75" y="265" width="10" height="40" as="geometry" />
        </mxCell>
        <mxCell id="gMbylMxWP29JA-Kpazjt-15" value="onVolumeStateChangedAsync" style="html=1;align=left;spacingLeft=2;endArrow=block;rounded=0;edgeStyle=orthogonalEdgeStyle;curved=0;rounded=0;" edge="1" target="gMbylMxWP29JA-Kpazjt-14" parent="gMbylMxWP29JA-Kpazjt-3">
          <mxGeometry relative="1" as="geometry">
            <mxPoint x="80" y="245" as="sourcePoint" />
            <Array as="points">
              <mxPoint x="110" y="275" />
            </Array>
          </mxGeometry>
        </mxCell>
        <mxCell id="gMbylMxWP29JA-Kpazjt-16" value="" style="html=1;points=[];perimeter=orthogonalPerimeter;outlineConnect=0;targetShapes=umlLifeline;portConstraint=eastwest;newEdgeStyle={&quot;edgeStyle&quot;:&quot;elbowEdgeStyle&quot;,&quot;elbow&quot;:&quot;vertical&quot;,&quot;curved&quot;:0,&quot;rounded&quot;:0};" vertex="1" parent="gMbylMxWP29JA-Kpazjt-3">
          <mxGeometry x="75" y="340" width="10" height="40" as="geometry" />
        </mxCell>
        <mxCell id="gMbylMxWP29JA-Kpazjt-17" value="handler:&amp;nbsp;H_VOLUME_BROADCAST" style="html=1;align=left;spacingLeft=2;endArrow=block;rounded=0;edgeStyle=orthogonalEdgeStyle;curved=0;rounded=0;" edge="1" target="gMbylMxWP29JA-Kpazjt-16" parent="gMbylMxWP29JA-Kpazjt-3">
          <mxGeometry relative="1" as="geometry">
            <mxPoint x="80" y="320" as="sourcePoint" />
            <Array as="points">
              <mxPoint x="110" y="350" />
            </Array>
          </mxGeometry>
        </mxCell>
        <mxCell id="gMbylMxWP29JA-Kpazjt-5" value="Apps&lt;pre style=&quot;border: 0px; margin-top: 0px; margin-bottom: 0px; text-align: start; background-color: rgb(255, 255, 255);&quot;&gt;&lt;span style=&quot;display: inline;&quot; class=&quot;scope-body&quot; id=&quot;scope_id_f8f47586_fold&quot;&gt;&lt;/span&gt;&lt;/pre&gt;" style="shape=umlLifeline;perimeter=lifelinePerimeter;whiteSpace=wrap;html=1;container=0;dropTarget=0;collapsible=0;recursiveResize=0;outlineConnect=0;portConstraint=eastwest;newEdgeStyle={&quot;edgeStyle&quot;:&quot;elbowEdgeStyle&quot;,&quot;elbow&quot;:&quot;vertical&quot;,&quot;curved&quot;:0,&quot;rounded&quot;:0};" vertex="1" parent="1">
          <mxGeometry x="760" width="140" height="440" as="geometry" />
        </mxCell>
        <mxCell id="gMbylMxWP29JA-Kpazjt-6" value="" style="html=1;points=[];perimeter=orthogonalPerimeter;outlineConnect=0;targetShapes=umlLifeline;portConstraint=eastwest;newEdgeStyle={&quot;edgeStyle&quot;:&quot;elbowEdgeStyle&quot;,&quot;elbow&quot;:&quot;vertical&quot;,&quot;curved&quot;:0,&quot;rounded&quot;:0};" vertex="1" parent="gMbylMxWP29JA-Kpazjt-5">
          <mxGeometry x="65" y="350" width="10" height="90" as="geometry" />
        </mxCell>
        <mxCell id="gMbylMxWP29JA-Kpazjt-19" value="" style="html=1;points=[];perimeter=orthogonalPerimeter;outlineConnect=0;targetShapes=umlLifeline;portConstraint=eastwest;newEdgeStyle={&quot;edgeStyle&quot;:&quot;elbowEdgeStyle&quot;,&quot;elbow&quot;:&quot;vertical&quot;,&quot;curved&quot;:0,&quot;rounded&quot;:0};" vertex="1" parent="gMbylMxWP29JA-Kpazjt-5">
          <mxGeometry x="65" y="90" width="10" height="130" as="geometry" />
        </mxCell>
        <mxCell id="gMbylMxWP29JA-Kpazjt-21" value="registerReceiver:&amp;nbsp;&lt;br&gt;ACTION_MEDIA_MOUNTED" style="html=1;align=left;spacingLeft=2;endArrow=block;rounded=0;edgeStyle=orthogonalEdgeStyle;curved=0;rounded=0;" edge="1" parent="gMbylMxWP29JA-Kpazjt-5">
          <mxGeometry relative="1" as="geometry">
            <mxPoint x="75" y="110" as="sourcePoint" />
            <Array as="points">
              <mxPoint x="105" y="140" />
            </Array>
            <mxPoint x="80" y="140" as="targetPoint" />
          </mxGeometry>
        </mxCell>
        <mxCell id="gMbylMxWP29JA-Kpazjt-9" value="" style="html=1;points=[];perimeter=orthogonalPerimeter;outlineConnect=0;targetShapes=umlLifeline;portConstraint=eastwest;newEdgeStyle={&quot;edgeStyle&quot;:&quot;elbowEdgeStyle&quot;,&quot;elbow&quot;:&quot;vertical&quot;,&quot;curved&quot;:0,&quot;rounded&quot;:0};" vertex="1" parent="1">
          <mxGeometry x="160" y="120" width="10" height="120" as="geometry" />
        </mxCell>
        <mxCell id="gMbylMxWP29JA-Kpazjt-10" value="setState" style="html=1;align=left;spacingLeft=2;endArrow=block;rounded=0;edgeStyle=orthogonalEdgeStyle;curved=0;rounded=0;" edge="1" target="gMbylMxWP29JA-Kpazjt-9" parent="1">
          <mxGeometry relative="1" as="geometry">
            <mxPoint x="165" y="100" as="sourcePoint" />
            <Array as="points">
              <mxPoint x="195" y="130" />
            </Array>
          </mxGeometry>
        </mxCell>
        <mxCell id="gMbylMxWP29JA-Kpazjt-11" value="onVolumeStateChanged" style="html=1;verticalAlign=bottom;endArrow=block;edgeStyle=elbowEdgeStyle;elbow=vertical;curved=0;rounded=0;" edge="1" parent="1" target="gMbylMxWP29JA-Kpazjt-3">
          <mxGeometry width="80" relative="1" as="geometry">
            <mxPoint x="170" y="150" as="sourcePoint" />
            <mxPoint x="250" y="150" as="targetPoint" />
          </mxGeometry>
        </mxCell>
        <mxCell id="gMbylMxWP29JA-Kpazjt-18" value="sendBroadcastAsUser" style="html=1;verticalAlign=bottom;endArrow=block;edgeStyle=elbowEdgeStyle;elbow=vertical;curved=0;rounded=0;" edge="1" parent="1" target="gMbylMxWP29JA-Kpazjt-5">
          <mxGeometry width="80" relative="1" as="geometry">
            <mxPoint x="430" y="380" as="sourcePoint" />
            <mxPoint x="510" y="380" as="targetPoint" />
          </mxGeometry>
        </mxCell>
      </root>
    </mxGraphModel>
  </diagram>
</mxfile>
